<svg id="Layer_1" data-name="Layer 1" xmlns="http://www.w3.org/2000/svg" viewBox="0 0 500 500"><defs><style>.cls-1{fill:#d82f23;}.cls-2{fill:#bf100c;}.cls-3{fill:none;stroke:#000;stroke-linecap:round;stroke-linejoin:round;stroke-width:15px;}.cls-4{fill:#74bc17;}.cls-5{fill:#679b16;}.cls-6{fill:#ff6161;}.cls-7{fill:#ffc612;}</style></defs><title>tomato</title><path class="cls-1" d="M491.4,229.61c0,99.14-86.85,181.53-194,181.53s-194-82.39-194-181.53S190.28,66,297.42,66,491.4,130.47,491.4,229.61Z"/><path class="cls-2" d="M297.42,66q-10.71,0-21.12.86c97.2,7.89,172.86,70.21,172.86,162.75S373.5,400.08,276.3,410.05a204.53,204.53,0,0,0,21.12,1.09c107.13,0,194-82.39,194-181.53S404.55,66,297.42,66Z"/><path class="cls-3" d="M491.4,229.61c0,99.14-86.85,181.53-194,181.53s-194-82.39-194-181.53S190.28,66,297.42,66,491.4,130.47,491.4,229.61Z"/><path class="cls-4" d="M288.89,112.55s-38.36,11.92-57.46,57.38c0,0-31.29-49.25,8-80.46,0,0-26.92-14.22-79.3-4.79,0,0,37.81-43.4,94.76-35.29,0,0,12.73-33.12,75.47-34.94,0,0-11.82,19.88-10,34.94,0,0,45.47-16,100.62,14.94,0,0-77.31,14.32-88.22,18.87,0,0,45.5,20.29,36.91,73.41C369.64,156.61,333.82,114.89,288.89,112.55Z"/><path class="cls-5" d="M332.73,83.2C343.64,78.65,421,64.33,421,64.33c-55.15-31-100.62-14.94-100.62-14.94-1.82-15.06,10-34.94,10-34.94s-60.41,26.73-45,54.64c9.51,17.24,39.42,46.55,60.91,66.46a154.87,154.87,0,0,1,23.41,21.06C378.23,103.49,332.73,83.2,332.73,83.2Z"/><path class="cls-3" d="M288.89,112.55s-38.36,11.92-57.46,57.38c0,0-31.29-49.25,8-80.46,0,0-26.92-14.22-79.3-4.79,0,0,37.81-43.4,94.76-35.29,0,0,12.73-33.12,75.47-34.94,0,0-11.82,19.88-10,34.94,0,0,45.47-16,100.62,14.94,0,0-77.31,14.32-88.22,18.87,0,0,45.5,20.29,36.91,73.41C369.64,156.61,333.82,114.89,288.89,112.55Z"/><circle class="cls-6" cx="159.6" cy="326.38" r="151.54"/><circle class="cls-3" cx="159.6" cy="326.38" r="151.54"/><path class="cls-1" d="M168.35,317.63h77.43a20.53,20.53,0,0,0,19.48-27.07,111.81,111.81,0,0,0-69.84-69.84,20.53,20.53,0,0,0-27.07,19.48Z"/><path class="cls-1" d="M150.85,317.63V240.2a20.53,20.53,0,0,0-27.07-19.48,111.81,111.81,0,0,0-69.84,69.84,20.53,20.53,0,0,0,19.48,27.07Z"/><path class="cls-1" d="M168.35,335.13v77.42A20.54,20.54,0,0,0,195.42,432a111.84,111.84,0,0,0,69.84-69.85,20.53,20.53,0,0,0-19.48-27.06Z"/><path class="cls-1" d="M150.85,335.13H73.42a20.53,20.53,0,0,0-19.48,27.06A111.84,111.84,0,0,0,123.78,432a20.54,20.54,0,0,0,27.07-19.49Z"/><path class="cls-7" d="M112.85,267.72c3.2,3.21,7.64,19.26,7.64,19.26s-16.06-4.43-19.27-7.64a8.22,8.22,0,1,1,11.63-11.62Z"/><path class="cls-7" d="M120.23,265.2c-.58,4.5,5.69,19.93,5.69,19.93s10-13.3,10.61-17.8a8.22,8.22,0,0,0-16.3-2.13Z"/><path class="cls-7" d="M98.71,286.73c4.5-.59,19.93,5.68,19.93,5.68s-13.3,10-17.8,10.61a8.21,8.21,0,1,1-2.13-16.29Z"/><path class="cls-7" d="M218.26,373.13c-3.21-3.21-19.26-7.64-19.26-7.64s4.43,16.05,7.64,19.26a8.22,8.22,0,0,0,11.62-11.62Z"/><path class="cls-7" d="M220.77,365.74c-4.5.59-19.93-5.68-19.93-5.68s13.3-10,17.8-10.62a8.22,8.22,0,1,1,2.13,16.3Z"/><path class="cls-7" d="M199.25,387.26c.59-4.5-5.69-19.92-5.69-19.92s-10,13.3-10.61,17.8a8.22,8.22,0,1,0,16.3,2.12Z"/><path class="cls-7" d="M218.26,279.34C215.05,282.55,199,287,199,287s4.43-16.05,7.64-19.26a8.22,8.22,0,1,1,11.62,11.62Z"/><path class="cls-7" d="M220.77,286.73c-4.5-.59-19.93,5.68-19.93,5.68s13.3,10,17.8,10.61a8.21,8.21,0,1,0,2.13-16.29Z"/><path class="cls-7" d="M199.25,265.2c.59,4.5-5.69,19.93-5.69,19.93s-10-13.3-10.61-17.8a8.22,8.22,0,0,1,16.3-2.13Z"/><path class="cls-7" d="M112.85,384.75c3.2-3.21,7.64-19.26,7.64-19.26s-16.06,4.43-19.27,7.64a8.22,8.22,0,0,0,11.63,11.62Z"/><path class="cls-7" d="M120.23,387.26c-.58-4.5,5.69-19.92,5.69-19.92s10,13.3,10.61,17.8a8.22,8.22,0,1,1-16.3,2.12Z"/><path class="cls-7" d="M98.71,365.74c4.5.59,19.93-5.68,19.93-5.68s-13.3-10-17.8-10.62a8.22,8.22,0,0,0-2.13,16.3Z"/></svg>